PathFileType	4	(X/Y/Z)	C:/Users/opensim2020/Desktop/walking_exp_matlab/subject01_walking08_straight_02.trc	
DataRate	CameraRate	NumFrames	NumMarkers	Units	OrigDataRate	OrigDataStartFrame	OrigNumFrames	
100.00	100.00	4	43	mm	100.00	1807	311	
Frame#	Time	LFHD			RFHD			LBHD			RBHD			C7			T10			CLAV			STRN			RBAK			LSHO			LUPA			LELB			LFRM			LWRA			LWRB			LFIN			RSHO			RUPA			RELB			RFRM			RWRA			RWRB			RFIN			LASI			RASI			LPSI			RPSI			LTHI			LKNE			LTIB			LANK			LHEE			LTOE			RTHI			RKNE			RTIB			RANK			RHEE			RTOE			*39			*40			*41			*42			
		X1	Y1	Z1	X2	Y2	Z2	X3	Y3	Z3	X4	Y4	Z4	X5	Y5	Z5	X6	Y6	Z6	X7	Y7	Z7	X8	Y8	Z8	X9	Y9	Z9	X10	Y10	Z10	X11	Y11	Z11	X12	Y12	Z12	X13	Y13	Z13	X14	Y14	Z14	X15	Y15	Z15	X16	Y16	Z16	X17	Y17	Z17	X18	Y18	Z18	X19	Y19	Z19	X20	Y20	Z20	X21	Y21	Z21	X22	Y22	Z22	X23	Y23	Z23	X24	Y24	Z24	X25	Y25	Z25	X26	Y26	Z26	X27	Y27	Z27	X28	Y28	Z28	X29	Y29	Z29	X30	Y30	Z30	X31	Y31	Z31	X32	Y32	Z32	X33	Y33	Z33	X34	Y34	Z34	X35	Y35	Z35	X36	Y36	Z36	X37	Y37	Z37	X38	Y38	Z38	X39	Y39	Z39	X40	Y40	Z40	X41	Y41	Z41	X42	Y42	Z42	X43	Y43	Z43	

1	0.000	1423.38452	1378.15698	1672.98779	1315.36487	1347.07764	1688.61292	1392.68286	1476.85303	1602.09302	1277.68005	1448.17615	1616.99524	1345.64612	1475.69629	1428.35071	1337.94409	1506.32971	1136.90332	1360.53320	1331.40869	1365.39380	1366.34985	1285.73474	1209.27771	1261.45789	1517.10425	1235.99414	1514.96362	1408.22339	1390.74597	1592.31775	1452.76184	1205.98596	1588.08411	1475.33606	1057.46582	1615.15100	1449.37268	947.28821	1599.46606	1381.93555	825.13391	1622.54456	1437.98267	825.59308	1632.62354	1395.58350	751.91040	1204.21191	1378.03394	1392.47424	1093.34290	1401.25220	1189.89307	1089.16248	1386.05554	1064.86621	1066.99683	1330.75964	955.28870	1099.23218	1228.17834	861.44220	1057.19775	1267.28516	850.70447	1065.16663	1212.44287	785.39746	1453.94946	1338.36914	933.40753	1235.76257	1336.44495	928.23566	1403.07764	1525.42346	942.98181	1259.12805	1522.40027	947.32086	1527.75037	1302.60498	615.82770	1509.63892	1274.83704	485.92535	1525.19397	1273.44824	299.29907	1484.01318	1221.60254	80.45797	1426.57568	1251.08960	40.81308	1495.97412	1071.15393	77.28300	1193.23340	1436.67358	599.60187	1224.02649	1460.32507	441.09677	1215.11047	1553.97803	290.72421	1268.45789	1636.97314	100.24352	1313.91260	1696.83618	74.05696	1287.19336	1506.52051	42.36283	1335.02197	1370.67761	1716.94397	-3101.99365	1973.10413	1023.31451	-3140.80713	2012.51306	1021.94867			 
2	0.010	1425.66748	1371.47180	1672.63928	1317.55737	1340.28821	1688.32227	1395.01135	1470.22583	1601.80237	1280.01855	1441.57422	1616.69043	1348.06396	1469.18359	1427.80188	1340.18726	1499.10559	1136.26233	1362.66431	1324.71899	1365.11755	1368.35510	1278.73425	1209.12134	1263.84106	1510.40808	1235.37524	1517.24792	1401.41541	1390.33496	1594.65356	1445.53821	1205.48889	1590.25171	1467.87732	1056.87231	1617.25500	1441.58594	946.81573	1601.00659	1373.90637	824.66626	1624.27039	1429.91370	825.00323	1634.23645	1387.30115	751.43805	1206.18762	1371.87317	1392.43213	1095.35510	1395.28320	1189.76306	1091.13257	1380.60474	1064.71692	1068.66541	1325.96118	954.95001	1100.46997	1223.74463	860.39624	1058.48499	1262.93103	849.91565	1066.17908	1208.72803	784.41437	1455.78271	1330.55115	932.74487	1237.52844	1329.07068	927.87463	1405.38538	1517.76685	942.63556	1261.42676	1515.03345	947.35248	1527.93677	1295.63623	614.65668	1509.19543	1268.63647	484.79022	1523.87915	1269.29321	297.25220	1482.36780	1220.63477	78.73684	1425.47119	1251.19165	39.11103	1492.44080	1070.10059	73.50256	1194.37659	1431.42419	599.89636	1224.37988	1456.12537	441.22629	1215.50427	1551.31592	291.98956	1267.93811	1636.18298	101.92596	1313.40076	1696.23206	76.34798	1286.96155	1506.40259	42.35693	1337.20227	1364.03833	1716.53418	-3102.04126	1973.13232	1023.44055	-3140.69238	2012.57031	1022.01294			 
3	0.020	1427.92249	1364.75842	1672.28076	1319.79102	1333.70227	1688.00659	1397.41138	1463.59021	1601.53992	1282.47461	1435.06982	1616.34473	1350.62830	1462.66833	1427.26904	1342.58862	1491.71619	1135.54248	1365.02185	1317.97925	1364.82959	1370.42480	1271.60608	1208.98303	1266.43457	1503.61108	1234.76099	1519.74036	1394.55542	1389.94958	1596.83618	1438.26428	1204.91370	1592.45215	1460.26648	1056.25769	1619.31738	1433.69788	946.26941	1602.81384	1365.73938	824.37354	1626.26428	1421.69238	824.51752	1635.90076	1378.87341	750.98877	1208.63074	1365.24231	1391.96191	1097.50146	1389.34863	1189.65234	1093.39575	1375.12268	1064.52832	1070.34595	1321.12183	954.58209	1101.71436	1219.49390	859.31378	1059.59583	1258.92859	849.18500	1067.29883	1205.09644	783.21082	1457.72546	1322.54614	932.19012	1239.45447	1321.71753	927.51672	1407.81018	1509.88501	942.33655	1263.85132	1507.48181	947.46594	1527.67053	1288.89014	613.00073	1508.69910	1262.48425	483.53955	1523.11902	1265.47852	295.66632	1480.81604	1219.69275	77.14415	1424.78503	1251.02710	38.15544	1488.87268	1068.39185	69.84507	1195.64368	1425.90466	600.11993	1225.12756	1451.41321	441.39008	1215.24524	1548.27148	293.04333	1267.45959	1635.17493	103.68984	1312.70715	1695.36328	78.59886	1286.73462	1506.21179	42.38966	1339.44006	1357.42981	1716.21582	-3102.06787	1973.05969	1023.32501	-3140.75195	2012.44324	1021.97412			 
4	0.030	1430.12866	1358.00232	1672.10034	1321.89124	1327.05493	1687.51782	1399.89795	1456.92371	1601.36023	1284.76038	1428.58508	1616.03589	1353.27405	1456.16101	1426.86816	1345.16821	1484.22388	1134.87769	1367.22949	1311.21411	1364.59827	1372.58386	1264.34216	1209.03625	1269.15710	1496.77673	1234.19226	1522.20825	1387.56506	1389.61011	1599.23975	1430.84546	1204.36279	1594.75391	1452.50073	1055.69983	1621.45569	1425.64075	945.73511	1604.63855	1357.41418	824.01709	1628.27661	1413.38025	824.05164	1637.69226	1370.27466	750.62317	1211.10742	1358.81396	1391.70569	1099.86475	1383.31665	1189.49426	1095.30054	1369.86328	1064.50989	1072.03577	1316.41541	954.19409	1102.93823	1215.29883	858.27161	1060.96973	1254.66418	848.45990	1068.38831	1201.38452	782.07410	1459.62415	1314.48584	931.72144	1241.27600	1313.94922	927.26178	1410.33215	1502.05103	942.15753	1266.26941	1499.87817	947.68616	1527.55371	1282.01062	611.78418	1508.73657	1256.49988	482.26917	1521.71362	1261.47510	293.91464	1480.02942	1217.30139	76.81062	1424.25281	1249.39343	38.66207	1486.76563	1065.62073	66.11122	1197.04358	1419.96387	600.25006	1225.56055	1446.31104	441.52390	1215.72559	1545.11597	294.37195	1267.02917	1634.07422	105.65818	1312.21960	1694.51123	81.42451	1286.56592	1505.99609	42.47657	1341.66956	1350.79004	1715.91162	-3101.99268	1973.19165	1023.25366	-3140.75146	2012.59631	1022.03534			 
